Coordinates
version=1
nRows=8
nColumns=40
inDegrees=yes

Units are S.I. units (second, meters, Newtons, ...)
Angles are in degrees.

endheader
time	pelvis_tilt	pelvis_list	pelvis_rotation	pelvis_tx	pelvis_ty	pelvis_tz	hip_flexion_r	hip_adduction_r	hip_rotation_r	knee_angle_r	knee_angle_r_beta	ankle_angle_r	subtalar_angle_r	mtp_angle_r	hip_flexion_l	hip_adduction_l	hip_rotation_l	knee_angle_l	knee_angle_l_beta	ankle_angle_l	subtalar_angle_l	mtp_angle_l	lumbar_extension	lumbar_bending	lumbar_rotation	arm_flex_r	arm_add_r	arm_rot_r	elbow_flex_r	pro_sup_r	wrist_flex_r	wrist_dev_r	arm_flex_l	arm_add_l	arm_rot_l	elbow_flex_l	pro_sup_l	wrist_flex_l	wrist_dev_l
     28.27750000	     -4.83111196	     -4.42877144	      0.57902593	      1.06014644	      0.93190305	      0.41123610	     35.63275041	     -8.90250304	     -7.23603607	     56.69934300	     56.69934300	      2.18262357	    -15.41666795	      2.29106685	     13.13402055	     -5.75388957	    -11.69036864	     20.89712400	     20.89712400	     14.85977234	     -4.99377287	     -3.36467929	    -12.97873004	      3.40024672	      1.14991467	      1.15453964	    -16.71033123	     -5.18005191	     51.74971683	     46.33305574	      0.00000000	      0.00000000	     10.71710944	    -15.78849222	     -6.23370880	     59.44782690	     46.94066348	      0.00000000	      0.00000000
     28.28900000	     -4.87275221	     -4.45540104	      0.37187228	      1.05937738	      0.93162412	      0.41182744	     35.55024078	     -8.80503196	     -7.31069333	     52.99709651	     52.99709651	      1.59471052	    -15.00549722	      1.63683908	     12.53570170	     -5.83879796	    -11.91455662	     20.73845206	     20.73845206	     15.27888239	     -4.88807175	     -3.32669842	    -13.01638901	      3.40535014	      0.71555699	      1.40880040	    -16.53414136	     -6.55891243	     47.34662286	     46.49684697	      0.00000000	      0.00000000	     10.69778117	    -16.57036923	     -6.36423324	     61.45442298	     47.00680321	      0.00000000	      0.00000000
     28.30050000	     -4.93564885	     -4.40451736	      0.13402071	      1.05867640	      0.93126097	      0.41253263	     35.40677201	     -8.71738564	     -7.34583268	     49.13738119	     49.13738119	      1.27994206	    -14.23980003	      1.71634830	     11.88417587	     -5.81546468	    -12.11599830	     20.44977915	     20.44977915	     15.60247664	     -4.83787342	     -3.37639046	    -13.07726382	      3.35464166	      1.04903436	      0.38826703	    -17.01731644	     -6.90263546	     45.22443507	     46.55940979	      0.00000000	      0.00000000	     11.36323525	    -16.79439038	     -6.61074942	     62.82604385	     47.06179662	      0.00000000	      0.00000000
     28.31200000	     -5.03227291	     -4.38445993	     -0.08838467	      1.05804855	      0.93082099	      0.41340794	     35.09566297	     -8.56481950	     -7.52108202	     44.94187620	     44.94187620	      0.62400951	    -13.33208098	      0.85271638	     11.26081926	     -5.82926836	    -12.29567373	     20.14476519	     20.14476519	     15.89729785	     -4.80197808	     -3.48126809	    -13.07449993	      3.30847468	      0.74563060	      0.57398243	    -16.98174176	     -8.02647244	     41.29496311	     46.69216994	      0.00000000	      0.00000000	     11.35612025	    -17.50598543	     -6.74046576	     64.63617781	     47.13150127	      0.00000000	      0.00000000
     28.32350000	     -5.12307023	     -4.32245956	     -0.31819231	      1.05755072	      0.93032124	      0.41435941	     34.69616866	     -8.40863744	     -7.74025511	     40.69150390	     40.69150390	      0.43881385	    -11.87344584	      1.24568816	     10.58300284	     -5.78547773	    -12.48208711	     19.77341113	     19.77341113	     16.19715257	     -4.76993371	     -3.55309192	    -13.08492202	      3.28985438	      1.00851427	     -0.55076483	    -17.46385168	     -8.17952301	     40.12669535	     46.72466842	      0.00000000	      0.00000000	     11.94688234	    -17.73680689	     -6.97614375	     65.61179389	     47.17185140	      0.00000000	      0.00000000
     28.33500000	     -5.22836682	     -4.17390059	     -0.55283376	      1.05716956	      0.92976335	      0.41549056	     34.16416542	     -8.30531662	     -8.09741199	     36.25130029	     36.25130029	     -0.19933566	    -10.11452594	      0.48993229	      9.82801321	     -5.63094511	    -12.68437423	     19.22142440	     19.22142440	     16.33214370	     -4.76015241	     -3.84924533	    -13.08586689	      3.08636453	      0.90200352	     -0.46710320	    -17.45118386	     -9.37184183	     36.47561853	     46.84605436	      0.00000000	      0.00000000	     11.90693876	    -18.27966787	     -7.14348633	     67.55237039	     47.25447766	      0.00000000	      0.00000000
     28.34650000	     -5.30576120	     -4.03514289	     -0.80413877	      1.05703183	      0.92913821	      0.41673125	     33.52731798	     -8.12204945	     -8.50956567	     31.88245914	     31.88245914	     -0.36685897	     -7.86102387	      1.07150801	      9.02968704	     -5.50212935	    -12.95526177	     18.70919902	     18.70919902	     16.60481161	     -4.64699573	     -3.94661616	    -13.09447915	      2.95830460	      1.19477992	     -1.55583222	    -17.83521629	     -9.53183263	     35.50815868	     46.87131580	      0.00000000	      0.00000000	     12.35400143	    -18.52619317	     -7.34014199	     68.50421609	     47.29152378	      0.00000000	      0.00000000
     28.35800000	     -5.37978803	     -3.87820515	     -1.01370835	      1.05707887	      0.92841673	      0.41814236	     32.79726710	     -7.91662706	     -9.06665446	     27.59398107	     27.59398107	     -0.50874728	     -5.34570196	      1.81591570	      8.17817528	     -5.34671472	    -13.19135484	     18.10349207	     18.10349207	     16.85465033	     -4.46727602	     -4.09336951	    -13.08544213	      2.79670898	      1.40730181	     -2.55966277	    -18.16851575	     -9.72897682	     34.47443591	     46.90511585	      0.00000000	      0.00000000	     12.64259604	    -18.77581237	     -7.42404830	     69.52478057	     47.32115068	      0.00000000	      0.00000000
